<?xml version="1.0"?><svg width="2470" height="1741" xmlns="http://www.w3.org/2000/svg">
 <title>Mountain peak</title>

 <metadata id="metadata2377">image/svg+xml</metadata>
 <g>
  <title>Layer 1</title>
  <g id="layer1">
   <path fill="#0028bc" fill-rule="nonzero" stroke-width="1px" id="path3558" d="m1268.564453,56.941788c-14.575317,17.333733 -27.083496,35.712357 -35.795776,57.510788c-15.792114,35.78421 -30.502441,72.136917 -46.101563,108.0215c-20.235229,48.28215 -41.252808,96.525742 -67.737305,141.215073c-21.375,34.053497 -43.909058,67.318146 -72.383301,94.906555c-10.953125,11.68573 -26.018066,23.71051 -32.022949,37.968994c-4.461426,10.591522 12.549683,27.965942 22.132324,22.70874c13.445068,-7.384949 23.760742,-23.793335 34.008667,-36.427826c23.828491,-34.539948 49.78418,-67.226532 68.309692,-105.248474c23.277954,-47.099274 46.826172,-90.257355 70.847656,-136.914536c16.758057,-34.791321 28.085449,-77.738113 48.948486,-109.751633c8.422485,-15.724098 20.669922,-26.500069 33.554688,-37.038132c9.890625,13.378586 14.507568,31.016411 20.244873,46.913116c8.084473,22.759811 14.691162,46.024338 20.669922,69.513306c5.679443,23.387833 18.738159,32.945831 38.11377,41.256439c12.440552,2.784668 24.214722,-1.142365 36.210938,-4.26416c1.284668,-1.255051 1.381226,-1.268539 1.873901,-1.775192c-0.695435,0.789841 -0.782471,1.27626 2.743042,-1.211731c30.5896,18.251984 43.741211,48.19809 67.608154,75.455139c29.121338,35.255646 49.23999,73.84552 68.557617,116.04303c8.780029,16.420898 28.217896,31.948517 31.87854,49.855652c-3.245361,0.687714 -6.577637,1.347534 -9.822998,2.044891c-25.083862,8.757568 -26.745361,28.937866 -21.288086,53.137695c3.129517,11.222412 6.838501,22.191528 11.06897,32.893799c-5.650391,-2.285706 -11.213867,-4.602234 -16.864258,-6.896667c-14.893921,-5.157043 -30.145142,-5.719543 -45.579956,-5.51239c-16.874023,-0.18689 -29.256592,7.264526 -42.228516,17.852173c-5.35083,7.0979 -11.455322,13.315491 -17.482422,19.60144c-6.423096,4.257385 -14.179077,2.813538 -21.375,3.184387c-21.606812,-2.861694 -43.18457,-4.057983 -64.849365,-3.688171c-26.165771,9.80365 -32.366821,34.772095 -42.498901,60.076721c-9.021362,25.259399 -24.098755,44.136414 -42.57605,61.41748c-13.280884,10.789001 -28.01062,10.400818 -43.281372,11.315857c-12.363159,-3.442505 -16.448853,-14.04657 -23.132813,-24.588989c-7.157227,-14.819031 -11.899658,-30.762207 -17.337524,-46.368164c-6.191406,-22.082703 -14.902466,-66.091309 -29.448608,-82.019043c-20.496094,-17.03833 -46.720947,10.815247 -71.148193,11.481812c-16.545532,1.981323 -32.946289,4.742859 -49.501465,6.495911c0.222168,-3.39917 -8.202271,-11.67804 -10.731934,-15.168701c-11.110596,-12.33783 -23.637085,-13.834656 -38.550354,-15.002075c-0.223145,-0.003845 -0.387329,0.074158 -0.606567,0.072266c-0.073364,-0.000977 -0.130371,0.024048 -0.20282,0.023132c-5.846497,-1.031616 -10.831421,-0.563538 -13.307983,2.012146c-8.299805,2.854919 -13.239319,8.955994 -20.202393,19.034058c-0.493591,0.713745 -0.291687,1.734802 0.241516,2.413879c3.239502,4.129272 6.236633,7.744202 9.255981,10.679138c-2.864807,5.494141 -5.863831,10.841003 -8.621399,16.11554c-19.478027,34.388672 -43.64447,65.19812 -68.470581,95.111694c-33.373108,40.404968 -68.956299,78.456787 -103.692322,117.46991c-34.885742,40.029297 -71.677246,78.204407 -107.847595,116.847656c-35.862305,36.563599 -71.406799,73.461487 -107.539551,109.707275c-34.689697,37.103149 -70.690063,72.636108 -106.659546,108.265503c-38.322388,39.886719 -78.775482,76.999268 -120.803955,112.156616c-33.354858,24.735474 -67.419617,48.47876 -102.234879,70.671143c-48.560745,55.567993 11.553894,80.110718 60.208298,65.739502c58.502594,-22.144409 117.833893,-39.665161 178.93277,-50.828979c30.732483,-4.970093 61.741211,-9.054077 92.631104,-9.131226c-12.644409,26.083984 -26.563721,51.281616 -37.823059,78.184204c-19.819885,47.900635 18.806519,58.180664 67.004089,66.618408c41.013306,-7.021851 59.557556,7.616577 100.48877,-0.62854c32.584106,-4.806396 65.378723,-6.511353 98.115417,-9.564697c36.112427,-4.411499 72.154358,-8.948242 108.498596,-10.11377c17.324036,-2.302124 33.794312,-0.703125 49.296692,3.746826c-0.718567,1.666382 43.787842,31.966797 42.852905,34.134033c94.872314,71.386353 116.391846,51.405762 136.493164,61.64978c20.101318,10.244019 34.287598,-16.419678 57.652466,-1.412842c20.911255,13.147827 130.190552,32.515869 190.143555,35.847412c236.804688,-29.677734 110.63269,-57.148804 127.864014,-70.113647c18.293945,-14.332642 39.224487,-23.762573 61.816528,-28.597778c61.913086,-18.253052 124.251221,-34.589111 187.64209,-45.637207c77.000244,-12.704834 154.927734,-21.57605 232.198364,-5.365112c49.462891,21.017334 57.595459,28.886719 66.839111,37.873657c13.609375,10.248535 28.541748,9.882446 44.218018,10.335205c44.884766,-1.656738 56.765137,-73.271851 21.635742,-100.916016c-4.481445,-1.05957 -8.992188,-1.820435 -13.551025,-2.408081c0.212402,0.202271 0.473145,0.366089 0.676025,0.587646c-0.637695,-0.289063 -1.284668,-0.616577 -1.931885,-0.88623c-10.08374,-1.204102 -20.254395,-1.309937 -30.579834,-0.838013c3.448242,-2.908936 8.113525,-4.61377 13.85083,-4.739014c2.124756,0.558716 4.269043,0.68396 6.442383,1.020996c-0.502441,-0.298584 -1.033447,-0.597168 -1.526123,-0.934326c-14.526855,-9.882568 -28.966797,-19.765137 -41.001709,-33.365723c-22.997681,-25.621582 -44.160156,-52.562622 -65.496582,-79.773438c-31.651855,-44.770386 -63.632324,-89.473145 -88.648682,-139.232788c-35.747314,-64.063477 -70.325928,-128.752991 -104.160889,-194.029114c-32.92688,-66.172913 -64.375977,-133.309021 -98.684204,-198.669922c-25.161377,-48.595154 -51.877686,-96.180908 -76.922974,-144.829041c-10.817993,-22.152039 -19.713745,-45.482056 -22.601685,-70.396606c3.09082,-0.88324 6.075439,-1.775208 9.127563,-2.852051c20.48645,-11.993958 32.221924,-27.358215 21.703491,-53.184906c-14.720093,-21.353516 -32.231567,-39.999451 -47.077148,-61.297089c-26.706665,-37.973785 -51.365723,-77.548462 -78.275269,-115.357544c-22.012451,-30.734253 -45.299927,-60.409958 -64.414795,-93.452103c-13.213135,-14.280624 -22.843018,-23.97731 -42.836792,-18.938736c-4.230591,1.046051 -8.1521,2.964783 -12.585449,3.037979c-3.457886,-1.803131 -8.973022,-1.566177 -10.373657,-5.441193c-11.19458,-19.980942 -20.785767,-40.685257 -26.996338,-63.216309c-6.094727,-23.293526 -10.219116,-47.685028 -20.447876,-69.317974c-12.1604,-9.455055 -22.591919,-15.774864 -33.583618,-14.475777l-21.152832,11.59557z"/>
   <path fill="#0028bc" fill-rule="nonzero" stroke-width="1px" id="path3556" d="m2029.298462,1501.381592c3.14624,2.361694 6.670776,4.077759 10.112915,5.959106c0.432251,0.103882 0.832886,0.350708 1.264038,0.458374c-3.143921,-3.717163 -7.200928,-5.268921 -11.376953,-6.41748z"/>
   <path fill="#0028bc" fill-rule="nonzero" stroke-width="1px" id="path3554" d="m1341.198486,52.865551c7.79248,1.63562 3.327637,0.924698 -0.632202,0.458389c0.219116,-0.141262 0.412964,-0.31707 0.632202,-0.458389z"/>
   <path fill="#0028bc" fill-rule="nonzero" stroke-width="1px" id="path3552" d="m1594.653687,501.401367c0.251099,3.150543 0.663208,6.242554 0.842529,9.397034c-5.550049,0.123444 -3.661865,-4.640869 -0.842529,-9.397034z"/>
   <path fill="#0028bc" fill-rule="nonzero" stroke-width="1px" id="path3548" d="m162.411346,1255.684082c0.400513,4.081665 -1.17746,7.991455 -7.373962,10.542725c2.397034,-3.535156 4.865326,-7.112305 7.373962,-10.542725z"/>
   <path fill="#0028bc" fill-rule="nonzero" stroke-width="1px" id="path3537" d="m484.550049,1268.977173c3.355835,0.651367 6.772705,1.29248 10.112915,2.062744c-3.516205,1.494507 -6.911743,0.296265 -10.112915,-2.062744z"/>
  </g>
 </g>
</svg>